<svg xmlns="http://www.w3.org/2000/svg" width="1227" height="1227" fill="none" viewBox="0 0 1227 1227" id="target">
  <g clip-path="url(#clip0_389_653)">
    <path fill="#FCBE37" fill-rule="evenodd" d="M405.036 916.499C238.323 916.499 102.461 780.638 102.461 613.075C101.612 446.362 238.323 310.5 405.036 310.5C571.75 310.5 707.611 446.362 707.611 613.075C707.611 780.638 571.75 916.499 405.036 916.499Z" clip-rule="evenodd"></path>
    <path fill="#fff" fill-rule="evenodd" d="M405.037 756.863C360.033 756.863 324.086 720.916 324.086 675.912C324.086 666.005 332.011 657.797 342.201 657.797C352.107 657.797 360.033 666.005 360.033 675.912C360.033 700.82 380.978 721.765 405.886 721.765C431.077 721.765 452.022 700.82 452.022 675.912C452.022 643.079 435.889 637.984 401.923 630.059C370.222 621.85 325.218 611.944 325.218 549.957C325.218 505.236 361.165 469.289 405.886 469.289C450.89 469.289 486.837 505.236 486.837 549.957C486.837 560.147 478.912 568.072 469.005 568.072C458.815 568.072 450.89 560.147 450.89 549.957C450.89 525.049 429.945 504.104 405.037 504.104C378.997 504.104 359.184 524.2 359.184 549.957C359.184 581.941 375.034 588.168 408.999 596.093C441.833 604.018 485.988 613.925 485.988 675.912C485.988 720.916 448.909 756.863 405.037 756.863Z" clip-rule="evenodd"></path>
    <path fill="#fff" fill-rule="evenodd" d="M405.037 505.237C395.13 505.237 386.922 497.311 386.922 487.122V450.326C386.922 440.419 395.13 432.211 405.037 432.211 414.943 432.211 422.869 440.419 422.869 450.326V487.122C422.019 497.311 414.094 505.237 405.037 505.237zM405.037 794.791C395.13 794.791 386.922 786.583 386.922 776.676V739.881C386.922 729.691 395.13 721.766 405.037 721.766 414.943 721.766 422.869 729.691 422.869 739.881V776.676C422.019 786.583 414.094 794.791 405.037 794.791z" clip-rule="evenodd"></path>
    <path fill="#99A4AC" fill-rule="evenodd" d="M894.14 760.828C893.29 760.828 891.309 760.828 890.177 760.828L515.991 671.386C506.934 669.405 500.99 659.498 502.971 650.441C504.953 641.383 514.859 635.439 523.917 637.421L898.102 726.863C907.16 728.844 913.104 738.751 911.122 747.808C909.141 755.733 902.065 760.828 894.14 760.828Z" clip-rule="evenodd"></path>
    <path fill="#FF5100" fill-rule="evenodd" d="M1162.75 928.387C1161.9 928.387 1159.64 928.387 1158.79 928.387L956.976 879.42C952.164 878.571 948.201 875.457 946.22 871.494L878.289 752.616C873.194 744.69 876.308 734.784 884.233 729.689L998.017 656.946C1001.98 653.833 1007.07 653.833 1011.89 654.965L1213.7 703.932C1219.64 705.913 1224.74 710.725 1226.72 716.952C1228.7 722.896 1225.59 729.689 1220.77 733.652L1134.73 803.564L1178.88 905.46C1181.71 911.404 1180.86 918.48 1175.77 923.575C1172.66 926.405 1167.84 928.387 1162.75 928.387Z" clip-rule="evenodd"></path>
  </g>
  <defs>
    <clipPath id="clip0_389_653">
      <rect width="1227" height="1227" fill="#fff"></rect>
    </clipPath>
  </defs>
</svg>
